<svg width="22" height="22" viewBox="0 0 22 22" fill="none" xmlns="http://www.w3.org/2000/svg">
<path d="M1 19.4615V2.53846C1 2.13044 1.16209 1.73912 1.4506 1.4506C1.73912 1.16209 2.13044 1 2.53846 1H19.4615C19.8696 1 20.2609 1.16209 20.5494 1.4506C20.8379 1.73912 21 2.13044 21 2.53846V19.4615C21 19.8696 20.8379 20.2609 20.5494 20.5494C20.2609 20.8379 19.8696 21 19.4615 21H14.8462V13.7077H15.9385C16.1874 13.7077 16.4261 13.6088 16.6021 13.4328C16.7781 13.2568 16.8769 13.0181 16.8769 12.7692V11.5846C16.8769 11.3357 16.7781 11.097 16.6021 10.921C16.4261 10.745 16.1874 10.6462 15.9385 10.6462H14.9077V9.2C14.9077 7.90769 15.4923 7.90769 16.0769 7.90769H16.8308C16.9546 7.91279 17.078 7.89063 17.1923 7.84278C17.3066 7.79493 17.409 7.72255 17.4923 7.63077C17.5817 7.54565 17.6525 7.44291 17.7002 7.32905C17.7478 7.21518 17.7713 7.09266 17.7692 6.96923V5.83077C17.7733 5.70549 17.7527 5.58063 17.7085 5.46333C17.6644 5.34603 17.5975 5.23859 17.5118 5.14715C17.426 5.0557 17.3231 4.98205 17.2089 4.93041C17.0947 4.87876 16.9714 4.85013 16.8462 4.84615H15.0769C14.5607 4.82675 14.0464 4.91963 13.5696 5.1184C13.0927 5.31716 12.6647 5.61706 12.3151 5.99739C11.9655 6.37772 11.7026 6.8294 11.5446 7.32125C11.3866 7.81309 11.3373 8.33337 11.4 8.84615V10.6462H10.4154C10.2909 10.6441 10.1672 10.6669 10.0515 10.7131C9.93588 10.7594 9.8306 10.8282 9.74182 10.9155C9.65304 11.0029 9.58254 11.107 9.53442 11.2219C9.4863 11.3368 9.46152 11.4601 9.46154 11.5846V12.7692C9.46152 12.8938 9.4863 13.0171 9.53442 13.132C9.58254 13.2468 9.65304 13.351 9.74182 13.4383C9.8306 13.5257 9.93588 13.5945 10.0515 13.6407C10.1672 13.687 10.2909 13.7097 10.4154 13.7077H11.4V21H2.53846C2.13044 21 1.73912 20.8379 1.4506 20.5494C1.16209 20.2609 1 19.8696 1 19.4615Z" stroke="black" stroke-width="1.53846" stroke-linecap="round" stroke-linejoin="round"/>
</svg>
