<svg width="22" height="22" viewBox="0 0 22 22" fill="none" xmlns="http://www.w3.org/2000/svg">
<rect x="0.75" y="0.75" width="20.5" height="20.5" rx="2.78862" stroke="black" stroke-width="1.5"/>
<path d="M7.04793 4.49448C7.05113 4.90235 6.89367 5.29508 6.60959 5.58777C6.32551 5.88046 5.93765 6.04957 5.52986 6.05855C5.12294 6.04377 4.73724 5.8732 4.45251 5.5821C4.16778 5.291 4.00578 4.90163 4 4.49448C4.01759 4.09769 4.18547 3.72245 4.46959 3.4449C4.7537 3.16736 5.13277 3.0083 5.52986 3C5.92579 3.00846 6.30351 3.16791 6.58572 3.44574C6.86793 3.72356 7.03328 4.09874 7.04793 4.49448ZM4.16396 8.83755C4.16396 7.93874 4.73603 8.0791 5.52986 8.0791C6.3237 8.0791 6.88398 7.93874 6.88398 8.83755V17.5945C6.88398 18.5051 6.3119 18.3187 5.52986 18.3187C4.74783 18.3187 4.16396 18.5051 4.16396 17.5945V8.83755ZM9.24306 8.83873C9.24306 8.33624 9.42943 8.1487 9.72077 8.0909C10.0121 8.0331 11.0171 8.0909 11.3674 8.0909C11.7177 8.0909 11.8581 8.66297 11.8463 9.09469C12.1463 8.69305 12.5441 8.37488 13.0018 8.17048C13.4596 7.96607 13.962 7.88223 14.4613 7.92694C14.9517 7.897 15.4429 7.97054 15.9031 8.14279C16.3632 8.31504 16.7819 8.58214 17.1321 8.92675C17.4823 9.27137 17.756 9.68578 17.9356 10.1431C18.1152 10.6004 18.1966 11.0904 18.1745 11.5812V17.5591C18.1745 18.4697 17.6143 18.2833 16.8192 18.2833C16.0254 18.2833 15.4651 18.4697 15.4651 17.5591V12.8893C15.4857 12.649 15.4543 12.407 15.3731 12.18C15.2919 11.9529 15.1627 11.7459 14.9944 11.5731C14.8262 11.4004 14.6227 11.2658 14.3978 11.1787C14.1729 11.0915 13.9319 11.0538 13.6911 11.0681C13.4513 11.0617 13.2128 11.1065 12.9916 11.1993C12.7704 11.2921 12.5714 11.4309 12.4079 11.6065C12.2444 11.782 12.1201 11.9904 12.0432 12.2176C11.9663 12.4449 11.9386 12.6859 11.9619 12.9247V17.5945C11.9619 18.5051 11.3898 18.3187 10.596 18.3187C9.80216 18.3187 9.24188 18.5051 9.24188 17.5945V8.83755L9.24306 8.83873Z" stroke="black" stroke-linecap="round" stroke-linejoin="round"/>
</svg>
