<svg width="332" height="41" viewBox="0 0 332 41" fill="none" xmlns="http://www.w3.org/2000/svg">
<path fill-rule="evenodd" clip-rule="evenodd" d="M1.41309 21.1946V1.41309H23.8187C29.3696 1.41309 41.6826 6.05569 41.6826 20.2863C41.6826 34.5169 30.6817 40.6734 21.1946 40.6734C16.5682 40.6734 14.8859 40.6814 13.9825 40.6857C13.0333 40.6902 12.9438 40.6906 11.2029 40.6734H1.41309V21.1946ZM14.3316 1.41309H1.41309V14.3316H14.3316V1.41309Z" fill="black"/>
<rect width="11.3037" height="11.3037" rx="5.65187" fill="black"/>
<path d="M68.207 31.7568V10.9165H76.7516C78.2798 10.9165 79.6593 11.1745 80.8898 11.6906C82.1403 12.1868 83.212 12.9013 84.1052 13.8341C85.0182 14.7471 85.7129 15.8388 86.1892 17.109C86.6656 18.3793 86.9038 19.7885 86.9038 21.3367C86.9038 22.8649 86.6656 24.2741 86.1892 25.5643C85.7129 26.8345 85.0281 27.9361 84.135 28.8689C83.2418 29.7819 82.17 30.4965 80.9196 31.0125C79.6692 31.5087 78.2798 31.7568 76.7516 31.7568H68.207ZM72.6728 28.5117L72.1965 27.7376H76.6027C77.4959 27.7376 78.2997 27.5887 79.0142 27.291C79.7287 26.9735 80.3341 26.5467 80.8303 26.0108C81.3463 25.4551 81.7334 24.7803 81.9914 23.9863C82.2494 23.1924 82.3784 22.3092 82.3784 21.3367C82.3784 20.3641 82.2494 19.4908 81.9914 18.7167C81.7334 17.9228 81.3463 17.248 80.8303 16.6922C80.3341 16.1365 79.7287 15.7098 79.0142 15.4121C78.2997 15.0945 77.4959 14.9357 76.6027 14.9357H72.1071L72.6728 14.2212V28.5117Z" fill="black"/>
<path d="M96.2423 32.0545C94.9324 32.0545 93.7514 31.6973 92.6995 30.9827C91.6476 30.2682 90.814 29.2957 90.1987 28.0651C89.5834 26.8345 89.2757 25.4253 89.2757 23.8375C89.2757 22.2497 89.5834 20.8504 90.1987 19.6397C90.8338 18.4091 91.6873 17.4465 92.759 16.7518C93.8308 16.0373 95.0515 15.68 96.421 15.68C97.195 15.68 97.8997 15.7991 98.5348 16.0373C99.1898 16.2556 99.7554 16.5632 100.232 16.9602C100.728 17.3571 101.145 17.8136 101.482 18.3297C101.82 18.8457 102.058 19.4015 102.197 19.9969L101.304 19.8481V16.0075H105.501V31.7568H101.244V27.9758L102.197 27.8865C102.038 28.4422 101.78 28.9682 101.423 29.4644C101.065 29.9606 100.619 30.4071 100.083 30.8041C99.5669 31.1812 98.9814 31.4889 98.3264 31.727C97.6714 31.9454 96.9767 32.0545 96.2423 32.0545ZM97.4035 28.3926C98.1974 28.3926 98.892 28.204 99.4875 27.8269C100.083 27.4498 100.539 26.9238 100.857 26.249C101.194 25.5543 101.363 24.7505 101.363 23.8375C101.363 22.9443 101.194 22.1603 100.857 21.4855C100.539 20.8107 100.083 20.2847 99.4875 19.9076C98.892 19.5106 98.1974 19.3122 97.4035 19.3122C96.6294 19.3122 95.9446 19.5106 95.3492 19.9076C94.7736 20.2847 94.3171 20.8107 93.9797 21.4855C93.6423 22.1603 93.4736 22.9443 93.4736 23.8375C93.4736 24.7505 93.6423 25.5543 93.9797 26.249C94.3171 26.9238 94.7736 27.4498 95.3492 27.8269C95.9446 28.204 96.6294 28.3926 97.4035 28.3926Z" fill="black"/>
<path d="M109.74 31.7568V16.0075H113.789L113.908 19.2228L113.074 19.5801C113.293 18.8656 113.68 18.2205 114.235 17.6449C114.811 17.0495 115.496 16.5732 116.29 16.2159C117.084 15.8586 117.917 15.68 118.791 15.68C119.981 15.68 120.974 15.9182 121.768 16.3945C122.582 16.8709 123.187 17.5953 123.584 18.5679C124.001 19.5206 124.209 20.7015 124.209 22.1107V31.7568H119.981V22.4382C119.981 21.7237 119.882 21.1282 119.684 20.6519C119.485 20.1755 119.178 19.8282 118.761 19.6099C118.364 19.3717 117.868 19.2725 117.272 19.3122C116.796 19.3122 116.349 19.3916 115.932 19.5503C115.536 19.6893 115.188 19.8977 114.89 20.1755C114.613 20.4534 114.384 20.771 114.206 21.1282C114.047 21.4855 113.968 21.8725 113.968 22.2893V31.7568H111.884C111.427 31.7568 111.02 31.7568 110.663 31.7568C110.306 31.7568 109.998 31.7568 109.74 31.7568Z" fill="black"/>
<path d="M128.617 31.7568V16.0075H132.845V31.7568H128.617ZM130.701 12.7624C129.888 12.7624 129.253 12.5639 128.796 12.1669C128.34 11.77 128.111 11.2043 128.111 10.4699C128.111 9.7951 128.34 9.24928 128.796 8.83247C129.272 8.39582 129.907 8.17749 130.701 8.17749C131.515 8.17749 132.15 8.38589 132.607 8.8027C133.063 9.19966 133.292 9.7554 133.292 10.4699C133.292 11.1646 133.053 11.7203 132.577 12.1371C132.121 12.554 131.495 12.7624 130.701 12.7624Z" fill="black"/>
<path d="M144.833 32.0545C143.126 32.0545 141.638 31.7072 140.367 31.0125C139.097 30.3178 138.105 29.3651 137.39 28.1544C136.676 26.9437 136.318 25.5543 136.318 23.9863C136.318 22.7756 136.517 21.6641 136.914 20.6519C137.311 19.6397 137.866 18.7663 138.581 18.032C139.295 17.2778 140.139 16.7022 141.112 16.3052C142.104 15.8884 143.176 15.68 144.327 15.68C145.399 15.68 146.391 15.8785 147.304 16.2754C148.217 16.6525 149.001 17.1984 149.656 17.9129C150.331 18.6076 150.847 19.4313 151.204 20.384C151.561 21.3367 151.72 22.3787 151.681 23.51L151.651 24.82H138.998L138.313 22.2298H148.167L147.691 22.7657V22.1107C147.651 21.5748 147.473 21.0886 147.155 20.6519C146.858 20.2152 146.47 19.8778 145.994 19.6397C145.518 19.4015 144.982 19.2824 144.386 19.2824C143.513 19.2824 142.769 19.4511 142.154 19.7885C141.558 20.1259 141.102 20.6221 140.784 21.2771C140.466 21.9321 140.308 22.726 140.308 23.6589C140.308 24.6116 140.506 25.4352 140.903 26.1299C141.32 26.8246 141.896 27.3704 142.63 27.7674C143.384 28.1445 144.267 28.333 145.28 28.333C145.974 28.333 146.609 28.2239 147.185 28.0055C147.761 27.7872 148.376 27.4101 149.031 26.8742L151.055 29.7025C150.48 30.2186 149.845 30.6552 149.15 31.0125C148.455 31.3499 147.741 31.6079 147.006 31.7866C146.272 31.9652 145.548 32.0545 144.833 32.0545Z" fill="black"/>
<path d="M154.835 31.7568V9.72563H159.062V31.7568H154.835Z" fill="black"/>
<path d="M163.382 31.7568V9.72563H167.61V31.7568H163.382Z" fill="black"/>
<path d="M179.082 32.0545C177.375 32.0545 175.887 31.7072 174.617 31.0125C173.346 30.3178 172.354 29.3651 171.639 28.1544C170.925 26.9437 170.568 25.5543 170.568 23.9863C170.568 22.7756 170.766 21.6641 171.163 20.6519C171.56 19.6397 172.116 18.7663 172.83 18.032C173.545 17.2778 174.388 16.7022 175.361 16.3052C176.353 15.8884 177.425 15.68 178.576 15.68C179.648 15.68 180.64 15.8785 181.553 16.2754C182.466 16.6525 183.25 17.1984 183.905 17.9129C184.58 18.6076 185.096 19.4313 185.453 20.384C185.811 21.3367 185.97 22.3787 185.93 23.51L185.9 24.82H173.247L172.562 22.2298H182.417L181.94 22.7657V22.1107C181.901 21.5748 181.722 21.0886 181.405 20.6519C181.107 20.2152 180.72 19.8778 180.243 19.6397C179.767 19.4015 179.231 19.2824 178.636 19.2824C177.762 19.2824 177.018 19.4511 176.403 19.7885C175.807 20.1259 175.351 20.6221 175.033 21.2771C174.716 21.9321 174.557 22.726 174.557 23.6589C174.557 24.6116 174.755 25.4352 175.152 26.1299C175.569 26.8246 176.145 27.3704 176.879 27.7674C177.633 28.1445 178.517 28.333 179.529 28.333C180.224 28.333 180.859 28.2239 181.434 28.0055C182.01 27.7872 182.625 27.4101 183.28 26.8742L185.305 29.7025C184.729 30.2186 184.094 30.6552 183.399 31.0125C182.705 31.3499 181.99 31.6079 181.256 31.7866C180.521 31.9652 179.797 32.0545 179.082 32.0545Z" fill="black"/>
<path d="M207.919 32.0545C206.39 32.0545 204.981 31.7965 203.691 31.2805C202.421 30.7446 201.309 30.0003 200.357 29.0476C199.424 28.075 198.699 26.9338 198.183 25.6238C197.667 24.294 197.409 22.8451 197.409 21.2771C197.409 19.7488 197.677 18.3396 198.213 17.0495C198.749 15.7395 199.503 14.6082 200.476 13.6555C201.448 12.683 202.59 11.9287 203.899 11.3929C205.209 10.857 206.629 10.589 208.157 10.589C209.149 10.589 210.122 10.7279 211.074 11.0058C212.047 11.2638 212.93 11.6509 213.724 12.1669C214.538 12.683 215.233 13.2983 215.808 14.0128L213.01 17.109C212.533 16.6327 212.037 16.2258 211.521 15.8884C211.025 15.5311 210.489 15.2632 209.913 15.0846C209.358 14.8861 208.762 14.7868 208.127 14.7868C207.274 14.7868 206.47 14.9456 205.716 15.2632C204.981 15.5808 204.336 16.0273 203.78 16.6029C203.225 17.1587 202.778 17.8434 202.441 18.6572C202.123 19.4511 201.964 20.3343 201.964 21.3069C201.964 22.2993 202.123 23.2024 202.441 24.0161C202.758 24.81 203.205 25.4948 203.78 26.0704C204.356 26.6261 205.041 27.0628 205.835 27.3803C206.648 27.6781 207.542 27.8269 208.514 27.8269C209.149 27.8269 209.765 27.7376 210.36 27.559C210.955 27.3803 211.501 27.1322 211.997 26.8147C212.513 26.4971 212.97 26.1299 213.367 25.7131L215.54 29.1964C215.064 29.7323 214.419 30.2186 213.605 30.6552C212.811 31.0919 211.918 31.4392 210.926 31.6973C209.933 31.9354 208.931 32.0545 207.919 32.0545Z" fill="black"/>
<path d="M224.604 32.0545C223.294 32.0545 222.113 31.6973 221.062 30.9827C220.01 30.2682 219.176 29.2957 218.561 28.0651C217.945 26.8345 217.638 25.4253 217.638 23.8375C217.638 22.2497 217.945 20.8504 218.561 19.6397C219.196 18.4091 220.049 17.4465 221.121 16.7518C222.193 16.0373 223.414 15.68 224.783 15.68C225.557 15.68 226.262 15.7991 226.897 16.0373C227.552 16.2556 228.117 16.5632 228.594 16.9602C229.09 17.3571 229.507 17.8136 229.844 18.3297C230.182 18.8457 230.42 19.4015 230.559 19.9969L229.666 19.8481V16.0075H233.863V31.7568H229.606V27.9758L230.559 27.8865C230.4 28.4422 230.142 28.9682 229.785 29.4644C229.427 29.9606 228.981 30.4071 228.445 30.8041C227.929 31.1812 227.343 31.4889 226.688 31.727C226.033 31.9454 225.339 32.0545 224.604 32.0545ZM225.766 28.3926C226.559 28.3926 227.254 28.204 227.85 27.8269C228.445 27.4498 228.901 26.9238 229.219 26.249C229.556 25.5543 229.725 24.7505 229.725 23.8375C229.725 22.9443 229.556 22.1603 229.219 21.4855C228.901 20.8107 228.445 20.2847 227.85 19.9076C227.254 19.5106 226.559 19.3122 225.766 19.3122C224.991 19.3122 224.307 19.5106 223.711 19.9076C223.136 20.2847 222.679 20.8107 222.342 21.4855C222.004 22.1603 221.836 22.9443 221.836 23.8375C221.836 24.7505 222.004 25.5543 222.342 26.249C222.679 26.9238 223.136 27.4498 223.711 27.8269C224.307 28.204 224.991 28.3926 225.766 28.3926Z" fill="black"/>
<path d="M238.102 31.7568V16.0075H242.181L242.33 21.0687L241.615 20.0267C241.853 19.2129 242.24 18.4786 242.776 17.8236C243.312 17.1487 243.937 16.6228 244.652 16.2457C245.386 15.8686 246.15 15.68 246.944 15.68C247.282 15.68 247.609 15.7098 247.927 15.7693C248.244 15.8289 248.512 15.8983 248.731 15.9777L247.599 20.6221C247.361 20.503 247.073 20.4038 246.736 20.3244C246.398 20.2252 246.051 20.1755 245.694 20.1755C245.217 20.1755 244.771 20.2649 244.354 20.4435C243.957 20.6023 243.61 20.8405 243.312 21.158C243.014 21.4557 242.776 21.813 242.598 22.2298C242.439 22.6466 242.359 23.1031 242.359 23.5993V31.7568H238.102Z" fill="black"/>
<path d="M257.581 31.7568L250.972 16.0075H255.616L259.814 27.7674L258.832 27.946L263.238 16.0075H267.763L260.826 31.7568H257.581Z" fill="black"/>
<path d="M275.804 32.0545C274.494 32.0545 273.313 31.6973 272.261 30.9827C271.209 30.2682 270.375 29.2957 269.76 28.0651C269.145 26.8345 268.837 25.4253 268.837 23.8375C268.837 22.2497 269.145 20.8504 269.76 19.6397C270.395 18.4091 271.249 17.4465 272.321 16.7518C273.392 16.0373 274.613 15.68 275.982 15.68C276.757 15.68 277.461 15.7991 278.096 16.0373C278.751 16.2556 279.317 16.5632 279.793 16.9602C280.289 17.3571 280.706 17.8136 281.044 18.3297C281.381 18.8457 281.619 19.4015 281.758 19.9969L280.865 19.8481V16.0075H285.063V31.7568H280.806V27.9758L281.758 27.8865C281.599 28.4422 281.341 28.9682 280.984 29.4644C280.627 29.9606 280.18 30.4071 279.644 30.8041C279.128 31.1812 278.543 31.4889 277.888 31.727C277.233 31.9454 276.538 32.0545 275.804 32.0545ZM276.965 28.3926C277.759 28.3926 278.454 28.204 279.049 27.8269C279.644 27.4498 280.101 26.9238 280.419 26.249C280.756 25.5543 280.925 24.7505 280.925 23.8375C280.925 22.9443 280.756 22.1603 280.419 21.4855C280.101 20.8107 279.644 20.2847 279.049 19.9076C278.454 19.5106 277.759 19.3122 276.965 19.3122C276.191 19.3122 275.506 19.5106 274.911 19.9076C274.335 20.2847 273.879 20.8107 273.541 21.4855C273.204 22.1603 273.035 22.9443 273.035 23.8375C273.035 24.7505 273.204 25.5543 273.541 26.249C273.879 26.9238 274.335 27.4498 274.911 27.8269C275.506 28.204 276.191 28.3926 276.965 28.3926Z" fill="black"/>
<path d="M289.331 31.7568V9.72563H293.559V31.7568H289.331Z" fill="black"/>
<path d="M297.849 31.7568V9.72563H302.017V19.2228L301.184 19.5801C301.402 18.8656 301.789 18.2205 302.345 17.6449C302.92 17.0495 303.605 16.5732 304.399 16.2159C305.193 15.8586 306.027 15.68 306.9 15.68C308.091 15.68 309.083 15.9182 309.877 16.3945C310.691 16.8709 311.296 17.5953 311.693 18.5679C312.11 19.5206 312.318 20.7015 312.318 22.1107V31.7568H308.091V22.4382C308.091 21.7237 307.991 21.1282 307.793 20.6519C307.595 20.1755 307.287 19.8282 306.87 19.6099C306.473 19.3717 305.977 19.2725 305.382 19.3122C304.905 19.3122 304.459 19.3916 304.042 19.5503C303.645 19.6893 303.297 19.8977 303 20.1755C302.722 20.4534 302.494 20.771 302.315 21.1282C302.156 21.4855 302.077 21.8725 302.077 22.2893V31.7568H299.993C299.536 31.7568 299.129 31.7568 298.772 31.7568C298.415 31.7568 298.107 31.7568 297.849 31.7568Z" fill="black"/>
<path d="M323.693 32.0545C322.086 32.0545 320.647 31.7072 319.376 31.0125C318.126 30.298 317.134 29.3254 316.399 28.0949C315.685 26.8643 315.327 25.4551 315.327 23.8673C315.327 22.2794 315.685 20.8801 316.399 19.6694C317.134 18.4389 318.126 17.4663 319.376 16.7518C320.647 16.0373 322.086 15.68 323.693 15.68C325.281 15.68 326.7 16.0373 327.951 16.7518C329.221 17.4663 330.213 18.4389 330.928 19.6694C331.642 20.8801 332 22.2794 332 23.8673C332 25.4551 331.642 26.8643 330.928 28.0949C330.213 29.3254 329.221 30.298 327.951 31.0125C326.7 31.7072 325.281 32.0545 323.693 32.0545ZM323.693 28.3628C324.467 28.3628 325.162 28.1743 325.777 27.7971C326.393 27.4002 326.869 26.8643 327.206 26.1895C327.564 25.4948 327.742 24.7207 327.742 23.8673C327.742 22.994 327.564 22.2199 327.206 21.5451C326.869 20.8504 326.393 20.3145 325.777 19.9374C325.162 19.5404 324.467 19.3419 323.693 19.3419C322.899 19.3419 322.195 19.5404 321.579 19.9374C320.964 20.3343 320.478 20.8702 320.121 21.5451C319.763 22.2199 319.595 22.994 319.615 23.8673C319.595 24.7207 319.763 25.4948 320.121 26.1895C320.478 26.8643 320.964 27.4002 321.579 27.7971C322.195 28.1743 322.899 28.3628 323.693 28.3628Z" fill="black"/>
</svg>
