<svg width="1280" height="790" viewBox="0 0 1280 790" fill="none" xmlns="http://www.w3.org/2000/svg">
<mask id="mask0_100_220" style="mask-type:alpha" maskUnits="userSpaceOnUse" x="0" y="0" width="1280" height="832">
<rect width="1280" height="832" fill="#D9D9D9"/>
</mask>
<g mask="url(#mask0_100_220)">
<path d="M445.948 -9.53147C465.5 24.1296 482.971 64.2135 509.795 92.885C534.564 119.359 568.131 137.309 599.934 153.672C658.707 183.914 737.496 210.371 772.65 270.892C805.81 327.98 792.786 404.05 789.379 466.407C787.215 506.037 784.959 548.625 796.86 587.095C808.547 624.869 834.468 659.344 854.185 693.289C842.613 727.089 840.128 762.613 828.843 796.437C814.801 838.527 789.476 875.222 766.067 912.532C724.372 979.01 684.972 1047.99 655.83 1121.1C632.161 1180.55 633.07 1240.51 600.205 1298.05C552.02 1382.42 498.015 1460.01 457.513 1548.87C410.646 1468.33 363.967 1387.68 317.131 1307.12C269.484 1225.2 198.73 1198.4 117.118 1157.19C34.4275 1115.42 -7.60926 1064.95 -6.30587 970.186C-5.26549 894.366 22.5211 798.87 -18.6357 729.138C-60.0302 658.998 -155.14 635.763 -222.057 598.75C-304.92 552.917 -328.062 491.037 -323.328 398.918C-320.945 352.344 -313.74 305.587 -316.892 258.872C-319.994 213.076 -337.494 180.121 -360.101 141.201C-404.953 63.9103 -449.957 -13.314 -494.778 -90.6229C-397.469 -81.5814 -303.119 -89.8882 -205.875 -89.7303C-139.814 -89.6084 -87.6606 -59.2356 -24.4312 -50.0681C53.4848 -38.7802 133.204 -38.8881 211.624 -42.0307C252.231 -43.6432 293.543 -47.305 333.943 -40.7184C372.529 -34.4278 407.621 -16.8981 445.972 -9.52486L445.948 -9.53147Z" stroke="#C4BEBE" stroke-width="0.87065" stroke-miterlimit="10"/>
<path d="M-329.608 -84.417C-274.676 -30.7 -192.385 23.1012 -162.594 96.5742C-130.306 176.196 -177.053 275.518 -183.272 356.379C-196.871 533.394 16.8608 540.157 89.9952 666.21C160.009 786.853 63.2126 968.937 210.521 1047.34C285.818 1087.44 391.054 1095.44 451.527 1159.61C508.216 1219.76 514.118 1326.13 534.14 1402.65" stroke="#C4BEBE" stroke-width="0.87065" stroke-miterlimit="10"/>
<path d="M-176.105 -88.7681C-114.221 -39.1403 -50.464 8.96148 -49.615 94.5235C-48.8074 175.628 -82.3584 255.4 -73.3671 336.71C-58.9379 467.365 119.648 508.851 180.521 613.831C239.822 716.104 188.44 877.59 283.814 959.099C346.214 1012.41 435.051 1025.64 506.125 1063.86C588.374 1108.09 600.635 1186.33 614.197 1271.81" stroke="#C4BEBE" stroke-width="0.87065" stroke-miterlimit="10"/>
<path d="M-88.4268 -68.2798C-47.4451 -11.4286 -13.8246 46.2349 5.20582 114.051C22.1386 174.414 32.4494 237.623 62.2459 293.524C115.518 393.502 199.894 471.954 256.666 569.694C311.372 663.876 337.408 771.23 393.934 864.485C427.03 919.106 474.387 960.399 519.279 1004.95C572.628 1057.9 607.03 1113.83 638.057 1181.85" stroke="#C4BEBE" stroke-width="0.87065" stroke-miterlimit="10"/>
<path d="M-15.96 -49.334C209.174 338.256 434.29 725.815 659.406 1113.37" stroke="#C4BEBE" stroke-width="0.87065" stroke-miterlimit="10"/>
<path d="M63.1006 -42.4541C124.772 57.5199 219.276 131.768 271.717 238.182C313.493 322.935 330.251 417.253 377.981 499.462C425.712 581.672 499.406 643.039 552.344 721.308C618.801 819.625 635.97 937.669 692.246 1040.79" stroke="#C4BEBE" stroke-width="0.87065" stroke-miterlimit="10"/>
<path d="M137.711 -39.6885C215.086 36.3165 336.71 85.3709 369.514 196.655C395.605 285.147 380.052 388.98 427.552 470.756C475.052 552.531 572.995 590.577 637.008 657.172C717.353 740.756 699.933 871.172 727.569 975.917" stroke="#C4BEBE" stroke-width="0.87065" stroke-miterlimit="10"/>
<path d="M211.648 -42.0229C302.919 18.7184 425.608 55.6479 442.14 178.795C453.451 263.011 424.768 368.999 470.351 445.951C516.372 523.659 620.081 550.75 688.582 603.069C787.27 678.43 758.618 803.357 766.08 912.484" stroke="#C4BEBE" stroke-width="0.87065" stroke-miterlimit="10"/>
<path d="M277.887 -44.4648C324.844 -15.2071 376.402 10.5874 417.768 47.8378C455.434 81.7611 469.691 120.298 477.302 169.29C489.646 248.722 475.456 346.927 517.187 418.808C558.944 490.696 651.361 527.167 714.289 577.285C748.563 604.608 776.643 634.572 787.954 677.971C802.947 735.502 798.815 797.48 801.078 856.26" stroke="#C4BEBE" stroke-width="0.87065" stroke-miterlimit="10"/>
<path d="M328.27 -41.5352C367.348 -11.9225 408.748 16.9763 440.933 54.3683C468.76 86.688 483.498 126.924 497.972 166.451C524.088 237.802 540.737 316.781 578.749 383.2C616.62 449.342 678.259 503.005 727.057 560.842C751.827 590.219 777.21 619.999 792.076 655.742C812.37 704.564 816.722 759 823.485 810.881" stroke="#C4BEBE" stroke-width="0.87065" stroke-miterlimit="10"/>
<path d="M364.747 -33.8345C426.713 27.8232 469.195 96.6822 519.147 167.527C560.778 226.548 606.211 283.704 642.687 346.173C679.144 408.611 706.039 476.629 736.636 541.955C773.452 620.491 811.98 690.988 834.855 775.43" stroke="#C4BEBE" stroke-width="0.87065" stroke-miterlimit="10"/>
<path d="M393.019 -24.1362C443.351 41.1652 480.657 110.539 543.459 165.442C595.27 210.741 663.122 253.169 698.946 313.575C732.562 370.252 736.325 447.962 748.398 511.16C764.866 597.439 807.5 666.631 840.926 746.689" stroke="#C4BEBE" stroke-width="0.87065" stroke-miterlimit="10"/>
<path d="M418.57 -15.2646C439.671 18.0891 457.266 56.1025 481.02 87.4989C504.221 118.163 538.542 140.6 570.785 160.621C627.17 195.633 707.972 228.057 742.863 288.162C775.786 344.841 766.289 426.295 767.984 488.917C769.036 527.485 770.878 567.088 783.598 603.885C797.457 644.021 826.427 683.274 846.33 720.729" stroke="#C4BEBE" stroke-width="0.87065" stroke-miterlimit="10"/>
<path d="M829.649 653.405C819.782 680.895 822.686 705.072 818.482 733.322C812.485 773.531 787.095 807.359 763.424 839.035C711.959 907.868 651.715 973.115 615.837 1052.21C595.459 1097.17 610.09 1143.93 589.881 1188.56C568.586 1235.57 528.964 1275.6 497.162 1315.5C462.202 1359.35 428.914 1403.43 401.484 1452.45" stroke="#C4BEBE" stroke-width="0.87065" stroke-miterlimit="10"/>
<path d="M806.27 610.577C792.312 640.416 800.07 648.842 802.703 678.75C805.429 709.616 786.4 735.763 767.826 758.596C706.058 834.594 626.299 898.034 576.134 983.135C563.761 1004.1 552.962 1026.07 550.63 1050.59C548.794 1069.83 553.791 1088.04 548.284 1107.05C536.592 1147.42 494.598 1183.33 467.412 1213.09C425.021 1259.52 381.989 1304.55 345.557 1355.95" stroke="#C4BEBE" stroke-width="0.87065" stroke-miterlimit="10"/>
<path d="M791.528 563.84C772.738 593.405 774.591 597.865 779.59 628.004C784.329 656.609 774.002 671.889 753.964 694.413C685.316 771.617 599.481 832.537 535.778 914.411C502.082 957.72 473.648 998.487 453.634 1049.4C421.218 1131.92 341.137 1190.86 288.094 1260.31" stroke="#C4BEBE" stroke-width="0.87065" stroke-miterlimit="10"/>
<path d="M787.829 510.752C770.572 531.539 754.188 551.147 748.84 578.082C743.711 603.797 743.154 615.018 724.115 636.689C656.305 713.85 566.96 771.228 495.798 845.554C444.041 899.638 382.738 947.51 337.131 1007.14C289.072 1069.98 233.969 1127.23 186.467 1190.38" stroke="#C4BEBE" stroke-width="0.87065" stroke-miterlimit="10"/>
<path d="M790.129 454.171C745.959 497.065 714.326 548.458 672.069 591.78C606.021 659.505 524.987 712.196 455.756 776.651C389.325 838.496 313.44 889.068 246.685 950.428C185.549 1006.6 123.339 1067.41 68.5689 1129.72" stroke="#C4BEBE" stroke-width="0.87065" stroke-miterlimit="10"/>
<path d="M793.373 397.043C667.374 500.432 540.691 603.185 415.738 707.757C347.912 764.518 274.022 813.304 205.148 868.695C135.761 924.509 67.6117 982.488 0.0927927 1040.5" stroke="#C4BEBE" stroke-width="0.87065" stroke-miterlimit="10"/>
<path d="M792.55 342.266C526.502 531.595 259.312 719.102 -3.14744 913.486" stroke="#C4BEBE" stroke-width="0.87065" stroke-miterlimit="10"/>
<path d="M782.62 292.765C520.913 455.637 259.34 618.304 -1.00546 783.375" stroke="#C4BEBE" stroke-width="0.87065" stroke-miterlimit="10"/>
<path d="M758.607 251.421C487.085 397.359 215.944 543.664 -57.0268 686.927" stroke="#C4BEBE" stroke-width="0.87065" stroke-miterlimit="10"/>
<path d="M720.503 218.234C423.832 354.77 127.296 491.501 -171.199 624.171" stroke="#C4BEBE" stroke-width="0.87065" stroke-miterlimit="10"/>
<path d="M673.297 190.321C520.939 248.147 368.792 307.787 215.661 363.304C48.7528 423.812 -113.387 497.171 -280.01 558.314" stroke="#C4BEBE" stroke-width="0.87065" stroke-miterlimit="10"/>
<path d="M622.022 164.763C560.095 182.487 495.541 183.618 434.64 201.296C346.526 226.863 263.549 267.908 175.672 294.39C85.2403 321.658 -1.69101 360.027 -92.5079 385.834C-169.193 407.624 -245.457 438.764 -323.524 454.621" stroke="#C4BEBE" stroke-width="0.87065" stroke-miterlimit="10"/>
<path d="M571.697 138.655C541.924 143.84 518.082 147.273 489.89 137.089C463.058 127.4 448.738 126.309 419.341 133.99C323.083 159.203 232.516 202.224 135.631 225.486C59.6223 243.728 -16.5972 270.487 -94.5645 279.048C-170.335 287.368 -242.276 312.575 -317.711 322.343" stroke="#C4BEBE" stroke-width="0.87065" stroke-miterlimit="10"/>
<path d="M527.381 109.088C486.545 110.959 488.193 104.661 462.728 83.9123C438.734 64.3537 408.732 73.7113 380.436 80.4607C284.971 103.195 193.248 143.139 95.6234 156.646C38.1948 164.57 -12.8656 165.188 -69.8235 157.501C-153.988 146.15 -244.909 188.597 -328.085 199.501" stroke="#C4BEBE" stroke-width="0.87065" stroke-miterlimit="10"/>
<path d="M494.072 73.102C458.069 70.1339 455.057 55.0882 427.866 39.1265C398.786 22.05 362.71 30.0858 331.43 35.8286C240.206 52.6346 149.479 86.427 55.8722 87.529C29.5014 87.8406 3.05325 85.7353 -20.7026 73.4025C-38.6465 64.0792 -51.9138 51.6058 -72.8101 48.4736C-118.188 41.6555 -172.105 61.6429 -215.645 71.5817C-271.105 84.2361 -326.058 96.7858 -382.751 102.243" stroke="#C4BEBE" stroke-width="0.87065" stroke-miterlimit="10"/>
<path d="M469.965 31.8137C437.744 26.5497 415.785 8.86335 385.705 -0.943691C345.475 -14.0882 300.901 -6.9803 259.948 -1.35928C179.677 9.65162 97.0803 26.7009 15.59 18.8294C-37.05 13.7551 -72.6442 -24.6499 -126.297 -26.7184C-230.41 -30.7258 -333.735 6.93292 -438.753 5.82691" stroke="#C4BEBE" stroke-width="0.87065" stroke-miterlimit="10"/>
</g>
</svg>
